<svg xmlns="http://www.w3.org/2000/svg" >
	<path fill="#406EB3" d="M84,59.5H73.1c-3.3,0 -5.9,-2.6 -5.9,-5.9V42.7c0,-3.2 2.6,-5.9 5.9,-5.9H84c3.2,0 5.9,2.6 5.9,5.9v10.9c0,3.3 -2.6,5.9 -5.9,5.9"/>
	<path fill="#632678" d="M55.7,84H43.5c-3.7,0 -6.6,-3 -6.6,-6.6V65.1c0,-3.6 3,-6.6 6.6,-6.6h12.3c3.7,0 6.6,3 6.6,6.6v12.3c0,3.7 -3,6.6 -6.7,6.6"/>
	<path fill="#982881" d="M54.6,109.5h-7.5c-2.2,0 -4,-1.8 -4,-4V98c0,-2.2 1.8,-4 4,-4h7.5c2.2,0 4,1.8 4,4v7.5c0,2.2 -1.8,4 -4,4"/>
	<path fill="#BA2F7D" d="M74.7,133.2h-8.9c-2.6,0 -4.8,-2.1 -4.8,-4.8v-8.9c0,-2.6 2.1,-4.8 4.8,-4.8h8.9c2.6,0 4.8,2.1 4.8,4.8v8.9c0,2.7 -2.1,4.8 -4.8,4.8M107.2,64h-6.1c-1.8,0 -3.3,-1.5 -3.3,-3.3v-6.1c0,-1.8 1.5,-3.3 3.3,-3.3h6.1c1.8,0 3.3,1.5 3.3,3.3v6.1c0.1,1.8 -1.4,3.3 -3.3,3.3"/>
	<path fill="#26478D" d="M241.8,68.1c2,0 3.5,-1.6 3.5,-3.5 0,-2 -1.6,-3.5 -3.5,-3.5 -2,0 -3.6,1.6 -3.6,3.5s1.6,3.5 3.6,3.5zM112.5,105.9c-0.5,0.8 -1.4,1.2 -2.4,1.2 -0.5,0 -1.2,-0.1 -1.6,-0.4 -0.8,-0.5 -1.3,-1.5 -1.3,-2.5 0,-0.5 0.1,-1 0.4,-1.4l8.2,-12.9 -8.2,-12.9c-0.3,-0.4 -0.4,-1 -0.4,-1.4 0,-1 0.5,-2 1.4,-2.5 0.5,-0.3 1,-0.4 1.5,-0.4 1,0 1.9,0.4 2.5,1.2l6.7,10.6 6.8,-10.6c0.5,-0.8 1.5,-1.2 2.5,-1.2 0.5,0 1,0.1 1.5,0.4 0.9,0.5 1.4,1.5 1.4,2.5 0,0.5 -0.1,1 -0.4,1.4l-8.2,12.9 8.2,12.9c0.3,0.4 0.4,0.9 0.4,1.4 0,1 -0.5,2.1 -1.3,2.5 -0.5,0.3 -1.1,0.4 -1.6,0.4 -1,0 -1.8,-0.4 -2.4,-1.2l-6.8,-10.5 -6.9,10.5zM141.8,76.6c3.1,-2.8 7.3,-4.5 11.8,-4.5 9.9,0 17.7,7.9 17.7,17.7 0,9.7 -7.9,17.6 -17.7,17.6 -4.5,0 -8.7,-1.7 -11.8,-4.5L141.8,118c0,1.5 -1.4,2.8 -2.9,2.8 -1.4,0 -2.9,-1.3 -2.9,-2.8L136,75.2c0,-1.5 1.4,-2.8 2.9,-2.8 1.6,0 2.9,1.3 2.9,2.8v1.4zM153.5,78c-6.6,0 -11.8,5.2 -11.8,11.8 0,6.6 5.2,11.8 11.8,11.8 6.6,0 11.8,-5.2 11.8,-11.8 0.1,-6.6 -5.1,-11.8 -11.8,-11.8zM221.4,86.6v17.7c0,1.5 -1.4,2.8 -2.9,2.8 -1.6,0 -2.9,-1.3 -2.9,-2.8L215.6,75.2c0,-1.5 1.4,-2.8 2.9,-2.8 1.4,0 2.8,1.2 2.9,2.7 2.4,-1.8 5.5,-2.9 8.8,-2.9 1.8,0 3.2,1.4 3.2,2.9 0,1.6 -1.4,3 -3.2,3 -4.5,0.1 -8.8,1.7 -8.8,8.5zM241.8,72.4c-1.6,0 -2.9,1.3 -2.9,2.8v29.2c0,1.5 1.4,2.8 2.9,2.8 1.4,0 2.9,-1.3 2.9,-2.8L244.7,75.2c0,-1.5 -1.4,-2.8 -2.9,-2.8zM279,75.2c0,-1.5 1.4,-2.8 2.9,-2.8 1.4,0 2.9,1.3 2.9,2.8v29.2c0,1.5 -1.4,2.8 -2.9,2.8 -1.6,0 -2.9,-1.3 -2.9,-2.8L279,103c-3.2,2.8 -7.3,4.5 -11.8,4.5 -9.9,0 -17.7,-7.9 -17.7,-17.7 0,-9.7 7.9,-17.6 17.7,-17.6 4.5,0 8.6,1.7 11.8,4.5v-1.5zM267.2,101.6c6.6,0 11.8,-5.2 11.8,-11.8 0,-6.6 -5.2,-11.8 -11.8,-11.8 -6.6,0 -11.8,5.2 -11.8,11.8 0,6.6 5.2,11.8 11.8,11.8zM314.5,87c0,-4.9 -4.2,-9.1 -9.1,-9.1 -4.7,0 -9.1,1.9 -9.1,8.8v17.7c0,1.5 -1.4,2.8 -2.9,2.8 -1.6,0 -2.9,-1.3 -2.9,-2.8L290.5,75.2c0,-1.5 1.4,-2.8 2.9,-2.8 1.4,0 2.8,1.2 2.9,2.7 2.5,-1.9 5.6,-2.9 9,-2.9 7.9,0 15,6.2 15,14v18.2c0,1.5 -1.4,2.8 -2.9,2.8 -1.6,0 -2.9,-1.3 -2.9,-2.8L314.5,87zM105.5,88.8c-0.1,-9 -8.1,-16.6 -17.6,-16.6 -9.9,0 -17.7,7.9 -17.7,17.6 0,9.9 7.9,17.7 17.7,17.7 4.7,0 9.1,-1.8 12.3,-5 0.6,-0.5 1,-1.4 1,-2.2 0,-1.6 -1.4,-2.9 -2.9,-2.9 -0.9,0 -1.7,0.5 -2.3,1.2 -2,2.1 -4.9,3.1 -8,3.1 -5.9,0 -10.7,-4 -11.7,-9.6h26.4s0,0 0.1,0h0.1s0.1,0 0.1,0c0.1,0 0.2,0 0.3,-0.1 1.2,-0.5 2.2,-1.7 2.2,-3.2zM87.9,78c5.3,0 9.7,3.4 11.2,8.2L76.6,86.2c1.5,-4.8 5.9,-8.2 11.3,-8.2zM210.7,88.8c-0.1,-9 -8.2,-16.6 -17.6,-16.6 -9.9,0 -17.7,7.9 -17.7,17.6 0,9.9 7.9,17.7 17.7,17.7 4.7,0 9.1,-1.8 12.3,-5 0.6,-0.5 1,-1.4 1,-2.2 0,-1.6 -1.4,-2.9 -2.9,-2.9 -0.9,0 -1.7,0.5 -2.3,1.2 -2,2.1 -4.9,3.1 -8,3.1 -5.9,0 -10.7,-4 -11.7,-9.6h26.4s0,0 0.1,0h0.1c0.1,0 0.2,0 0.2,0s0.1,0 0.1,0c1.2,-0.5 2.3,-1.8 2.3,-3.3zM193.1,78c5.3,0 9.7,3.4 11.2,8.2h-22.5c1.5,-4.8 5.9,-8.2 11.3,-8.2zM326.5,107.2c-0.3,0 -0.5,-0.2 -0.5,-0.5v-4.9h-1.1c-0.3,0 -0.5,-0.2 -0.5,-0.5s0.2,-0.5 0.5,-0.5h3.2c0.3,0 0.5,0.2 0.5,0.5s-0.2,0.5 -0.5,0.5L327,101.8v4.9c0,0.3 -0.2,0.5 -0.5,0.5zM332.2,107.2c-0.3,0 -0.4,-0.2 -0.5,-0.4l-1.4,-4v3.9c0,0.3 -0.2,0.5 -0.5,0.5s-0.5,-0.2 -0.5,-0.5v-5.2c0,-0.4 0.3,-0.7 0.7,-0.7 0.3,0 0.6,0.2 0.7,0.5l1.4,4.1 1.4,-4.1c0.1,-0.3 0.4,-0.5 0.7,-0.5 0.4,0 0.7,0.3 0.7,0.7v5.2c0,0.3 -0.2,0.5 -0.5,0.5s-0.5,-0.2 -0.5,-0.5v-3.9c-0.2,0.6 -0.5,1.6 -0.8,2.4 -0.5,1.6 -0.6,1.6 -0.6,1.6 0.1,0.3 -0.1,0.4 -0.3,0.4z"/>
</svg>
